HIERARCHY
ROOT pelvis
{
  OFFSET 0 100 0
  CHANNELS 6 Xposition Yposition Zposition Zrotation Xrotation Yrotation
  JOINT pelvis_right_femur
  {
    OFFSET -10.78128 -3.44521 -0.5502486
    CHANNELS 3 Zrotation Xrotation Yrotation
    JOINT right_femur_tibia
    {
      OFFSET -0.8047443 -44.0398 -0.1307829
      CHANNELS 3 Zrotation Xrotation Yrotation
      JOINT right_tibia_foot
      {
        OFFSET 3.006224 -47.83518 -5
        CHANNELS 3 Zrotation Xrotation Yrotation
        End Site
        {
          OFFSET 0 -5 15
        }
      }
    }
  }
  JOINT pelvis_left_femur
  {
    OFFSET 10.78128 -3.44521 -0.5502486
    CHANNELS 3 Zrotation Xrotation Yrotation
    JOINT left_femur_tibia
    {
      OFFSET 0.8047443 -44.0398 -0.1307829
      CHANNELS 3 Zrotation Xrotation Yrotation
      JOINT left_tibia_foot
      {
        OFFSET -4.370144 -48.10324 -4.275266
        CHANNELS 3 Zrotation Xrotation Yrotation
        End Site
        {
          OFFSET 0 -5 15
        }
      }
    }
  }
  JOINT pelvis_spine1
  {
    OFFSET 0 6.468898 -3.129235
    CHANNELS 3 Zrotation Xrotation Yrotation
    JOINT spine1
    {
      OFFSET 0 23.15396 4.99043
      CHANNELS 3 Zrotation Xrotation Yrotation
      JOINT spine2
      {
        OFFSET 0 20.79997 -5.064912
        CHANNELS 3 Zrotation Xrotation Yrotation
        JOINT neck
        {
          OFFSET 0 14.38658 9.616178
          CHANNELS 3 Zrotation Xrotation Yrotation
          End Site
          {
            OFFSET 0 20 0
          }
        }
      }
      JOINT right_manubrium
      {
        OFFSET -5.722621 16.35077 3.967754
        CHANNELS 3 Zrotation Xrotation Yrotation
        JOINT right_clavicle
        {
          OFFSET -13.16364 1.694482 -4.693211
          CHANNELS 3 Zrotation Xrotation Yrotation
          JOINT right_humerus
          {
            OFFSET -28.5034 -0.3100689 -2.792744
            CHANNELS 3 Zrotation Xrotation Yrotation
            JOINT right_radius
            {
              OFFSET -25.15693 0.02248979 -1.271978
              CHANNELS 3 Zrotation Xrotation Yrotation
              End Site
              {
                OFFSET -15 0 0
              }
            }
          }
        }
      }
      JOINT left_manubrium
      {
        OFFSET 5.722621 16.35077 3.967754
        CHANNELS 3 Zrotation Xrotation Yrotation
        JOINT left_clavicle
        {
          OFFSET 13.16364 1.694482 -4.693211
          CHANNELS 3 Zrotation Xrotation Yrotation
          JOINT left_humerus
          {
            OFFSET 29.39168 -1.063119 -2.237045
            CHANNELS 3 Zrotation Xrotation Yrotation
            JOINT left_radius
            {
              OFFSET 24.59957 -0.9528479 0.9047498
              CHANNELS 3 Zrotation Xrotation Yrotation
              End Site
              {
                OFFSET 15 -0 -0
              }
            }
          }
        }
      }
    }
  }
}
MOTION
Frames: 11
Frame Time: 0.0416666666667
0 103.5113 0 1.181681 -1.666536 0.1022323 3.043213 -16.19245 7.993901 -0 36.95276 -0 -5.535201 -15.29284 -3.812912 -7.108839 11.69294 -22.894 -0 5.267448 -0 7.225775 -17.60598 25.7701 -1.27051 -2.421539 5.895948 1.684124 11.23553 -7.904823 0.7547385 20.81639 7.106139 3.750184 -25.25166 8.758828 3.84475 -20.93555 12.16444 86.99326 31.4746 -19.22894 -0 0 18.1035 -12.83785 10.10801 4.190171 8.532105 -22.15186 0.5908511 -94.79873 20.38802 23.54092 0 0 -9.801237 14.79211 15.43167 -6.319601
0.2011791 103.3416 1.589604 0.817848 -0.7861778 0.1502886 3.45987 -19.28179 7.873572 -0 35.92118 -0 -5.722411 -14.88512 -3.700243 -6.903363 12.46029 -23.08044 -0 5.093013 -0 5.804392 -19.4078 25.18449 -1.389315 -2.221779 5.624194 1.854966 11.14735 -8.002927 0.7028099 20.779 7.284869 3.837292 -25.23784 8.756554 3.982792 -20.48378 12.20519 87.04602 31.70747 -19.29859 -0 0 17.33745 -12.87904 10.23982 4.470821 8.371832 -22.186 0.4237705 -94.22146 20.30889 22.67741 0 0 -10.68987 14.36566 15.03859 -5.741544
0.3644861 103.0339 3.435413 0.2870572 0.0845675 0.1870687 4.254845 -23.50137 7.189068 -0 32.48759 -0 -6.137036 -13.15126 -3.219057 -6.492994 13.14663 -22.31743 -0 5.248262 -0 5.34596 -20.89691 24.29176 -1.515645 -2.285709 5.401134 2.128762 11.00232 -8.129903 0.8265739 20.68966 7.331301 3.800023 -25.53458 9.044293 4.439862 -20.12065 12.11945 87.01606 32.4049 -19.73971 -0 0 16.73004 -11.49872 10.14727 4.02272 8.236147 -22.1299 0.2698884 -93.92469 20.67209 22.01619 0 0 -11.99316 14.56232 15.04914 -5.427996
0.5186293 102.5954 5.603811 -0.1602415 1.079388 0.2506906 5.036312 -27.34422 6.734081 -0 28.82426 -0 -6.273712 -11.39574 -2.771532 -6.170048 13.62422 -21.38182 -0 5.439184 -0 5.214871 -22.08835 23.37678 -1.651161 -2.203365 5.110229 2.401793 10.83413 -8.244173 0.8721737 20.60861 7.449645 3.803872 -25.73789 9.226476 4.741952 -19.69019 12.08167 87.04871 32.9959 -20.01431 -0 0 15.90883 -10.68515 10.12291 3.979665 8.038649 -22.07721 0.05568504 -93.34431 20.80665 21.11799 0 0 -13.42799 14.49182 14.74739 -4.947842
0.6808761 102.0261 8.226856 -0.5878718 2.193053 0.3869138 5.912878 -31.04066 6.371725 -0 24.65273 -0 -6.300598 -9.291171 -2.308156 -5.881888 14.03815 -20.14637 -0 5.979007 -0 5.36993 -22.95555 22.32355 -1.773734 -2.12528 4.838719 2.666606 10.64813 -8.331868 0.9199688 20.52759 7.547544 3.786752 -25.95368 9.40778 4.996931 -19.31161 12.03276 87.09212 33.61352 -20.25702 -0 0 15.10377 -9.891809 10.06239 3.997014 7.825009 -21.99273 -0.1749936 -92.73831 20.93184 20.2702 0 0 -14.92882 14.44381 14.38881 -4.46935
0.8558409 101.3531 11.40707 -1.008551 3.239814 0.6448143 6.784277 -34.00509 6.062645 -0 20.67224 -0 -6.335936 -7.003705 -1.911976 -5.600999 14.45217 -18.77386 -0 7.113331 -0 5.186559 -23.45662 20.95433 -1.87912 -2.014999 4.570102 2.914613 10.45841 -8.409303 0.939701 20.444 7.659731 3.78126 -26.13207 9.545813 5.17388 -18.94906 12.00074 87.16506 34.18247 -20.45973 -0 0 14.27382 -9.324717 10.02556 4.154405 7.619791 -21.92386 -0.413725 -92.0461 20.96098 19.37692 0 0 -16.4732 14.36144 13.92358 -4.011954
1.039983 100.642 15.23156 -1.461735 4.068123 1.056436 7.622602 -35.85133 5.765731 -0 17.36347 -0 -6.510567 -4.726888 -1.617165 -5.282132 14.87744 -17.34713 -0 9.23688 -0 4.342896 -23.34512 19.14423 -1.960542 -1.896582 4.326261 3.131221 10.27951 -8.475177 0.9402219 20.36071 7.768653 3.782559 -26.26382 9.639416 5.289504 -18.61779 11.97902 87.25816 34.68745 -20.64219 -0 0 13.47596 -8.954858 10.01479 4.402344 7.437167 -21.87768 -0.6458725 -91.33588 20.93351 18.50919 0 0 -17.97087 14.24586 13.41206 -3.571286
1.226764 100.0007 19.73223 -1.96733 4.51672 1.607442 8.371369 -36.21597 5.453226 -0 15.21399 -0 -6.914651 -2.837015 -1.45175 -4.888741 15.21087 -15.98629 -0 12.74773 -0 2.639698 -22.34162 16.88265 -2.015294 -1.776444 4.114974 3.305429 10.1286 -8.53612 0.9208656 20.28121 7.869498 3.794892 -26.32763 9.676085 5.355971 -18.31379 11.97 87.36612 35.0875 -20.81429 -0 0 12.74366 -8.809644 10.05005 4.715971 7.289446 -21.86975 -0.8575662 -90.65303 20.8609 17.69845 0 0 -19.31861 14.06949 12.89975 -3.137034
1.412861 99.57429 24.86407 -2.497246 4.46898 2.213288 8.978532 -34.92227 5.131715 -0 14.45735 -0 -7.583442 -1.749293 -1.416039 -4.414652 15.1885 -14.77445 -0 18.04273 -0 0.30582 -20.18051 14.40235 -2.043767 -1.663369 3.94572 3.427674 10.0223 -8.594918 0.8856013 20.21294 7.949758 3.815798 -26.30809 9.647344 5.39347 -18.03647 11.97179 87.47565 35.34794 -20.97632 -0 0 12.11862 -8.888166 10.14187 5.060494 7.177372 -21.90193 -1.036863 -90.06103 20.77325 17.00307 0 0 -20.38707 13.79724 12.44577 -2.67797
1.602636 99.51317 30.49588 -2.953215 3.908171 2.727802 9.373187 -32.07028 4.829386 -0 14.88546 -0 -8.44944 -1.70785 -1.483991 -3.902751 14.40084 -13.72556 -0 25.26341 -0 -2.080835 -16.88445 12.1206 -2.049676 -1.560865 3.825021 3.491178 9.97424 -8.652268 0.8373599 20.16447 8.000809 3.843435 -26.19505 9.548087 5.420022 -17.78617 11.9839 87.56896 35.43928 -21.1144 -0 0 11.63855 -9.186007 10.2959 5.406583 7.096914 -21.96957 -1.173452 -89.61568 20.69468 16.4754 0 0 -21.05584 13.4012 12.09986 -2.170744
1.805877 99.9167 36.43266 -3.1847 2.9203 2.997879 9.457478 -27.97282 4.552848 -0 15.83019 -0 -9.347206 -2.595653 -1.597519 -3.43391 12.41087 -12.75845 -0 34.05842 -0 -3.859725 -12.88341 10.42465 -2.038972 -1.46884 3.759252 3.491021 9.991551 -8.703015 0.7788128 20.14413 8.018214 3.876164 -25.98576 9.379049 5.446477 -17.5683 12.00572 87.6253 35.3508 -21.20048 -0 0 11.33345 -9.691131 10.50817 5.737199 7.039886 -22.06055 -1.261573 -89.35503 20.64377 16.15808 0 0 -21.24679 12.86821 11.88897 -1.600316
